<svg xmlns="http://www.w3.org/2000/svg" fill="none" viewBox="0 0 96 40">
  <path d="M39.133 30.712V17.516h6.918c1.081 0 1.992.132 2.734.396.741.264 1.3.635 1.678 1.112.39.478.584 1.043.584 1.697 0 .767-.201 1.407-.603 1.923-.402.515-1.006.873-1.81 1.074l.019-.358c.566.126 1.08.333 1.546.622.477.29.854.66 1.13 1.112.277.44.416.968.416 1.584 0 .754-.158 1.388-.472 1.904a3.52 3.52 0 01-1.225 1.244 6.27 6.27 0 01-1.715.678 8.925 8.925 0 01-1.923.208h-7.277zm3.488-2.997h3.789c.339 0 .634-.044.886-.132.251-.1.446-.24.584-.415.15-.189.226-.421.226-.698 0-.301-.094-.534-.282-.697a1.493 1.493 0 00-.68-.377 2.722 2.722 0 00-.829-.132h-3.694v2.45zm0-5.034h3.11c.352 0 .654-.044.905-.132.251-.088.44-.213.565-.377a.902.902 0 00.208-.603c0-.352-.157-.616-.471-.792-.315-.175-.736-.264-1.264-.264h-3.053v2.168zm8.78 8.03l5.994-13.195h3.186l5.976 13.196h-3.751l-3.054-6.768a37.618 37.618 0 01-.377-.848c-.1-.276-.195-.54-.283-.792l-.264-.754a69.7 69.7 0 01-.226-.81l.697-.02c-.088.303-.17.585-.245.85a8.947 8.947 0 01-.264.753c-.1.252-.207.51-.32.773-.113.264-.233.547-.358.848l-3.035 6.768H51.4zm2.865-2.073L55.397 26h7.145l.735 2.64h-9.01zM69.6 30.712V24.51l.264 1.225-6.315-8.219h4.392l4.675 6.296-2.187-.018 4.43-6.278h4.185l-5.844 8.03.17-1.187v6.353H69.6zm16.249.188c-1.144 0-2.2-.17-3.167-.509a7.864 7.864 0 01-2.489-1.451 6.68 6.68 0 01-1.62-2.168 6.611 6.611 0 01-.566-2.733c0-.993.194-1.904.584-2.734.39-.83.93-1.552 1.621-2.168a7.594 7.594 0 012.489-1.432c.955-.352 2.004-.528 3.148-.528 1.156 0 2.211.17 3.166.509.956.34 1.785.823 2.489 1.451a6.342 6.342 0 011.621 2.168c.377.83.566 1.735.566 2.715 0 .993-.189 1.91-.566 2.752a6.531 6.531 0 01-1.621 2.187 7.593 7.593 0 01-2.489 1.432c-.955.34-2.01.51-3.166.51zm.018-3.468a5.05 5.05 0 001.603-.245c.502-.176.93-.415 1.282-.717a3.16 3.16 0 00.829-1.093c.201-.415.302-.86.302-1.338 0-.478-.1-.924-.302-1.339a2.985 2.985 0 00-.83-1.074 3.538 3.538 0 00-1.281-.717 4.814 4.814 0 00-1.603-.264c-.59 0-1.137.088-1.64.264-.49.164-.917.396-1.281.698a3.19 3.19 0 00-.849 1.074 3.24 3.24 0 00-.282 1.358c0 .477.094.93.282 1.357.201.415.484.773.849 1.074.364.302.791.54 1.281.717.503.163 1.05.245 1.64.245z" fill="#fff"/>
  <path d="M14.205 35.81h-2.361a6.178 6.178 0 01-4.516-10.4l1.847-1.98a4.978 4.978 0 00-.119-6.913l-1.813-1.814a1.22 1.22 0 011.725-1.725l1.813 1.813a7.416 7.416 0 01.18 10.304l-1.85 1.98a3.743 3.743 0 002.734 6.292h1.102a39.233 39.233 0 01.02-1.68c.058-1.763.255-4.137.813-6.53.553-2.378 1.49-4.874 3.09-6.796 1.42-1.704 3.344-2.93 5.875-3.23V8.39a5.126 5.126 0 015.12-5.126c1.213 0 2.196.983 2.196 2.197v1.058h2.662c1.546 0 2.985.8 3.8 2.115l1.009 1.627c1.777 2.87-.137 6.542-3.406 6.819v15.068a3.661 3.661 0 01-3.657 3.661h-1.22v-3.661a6.1 6.1 0 00-6.1-6.102h-2.033a1.22 1.22 0 100 2.44h2.034a3.661 3.661 0 013.66 3.662v3.661H14.205z" fill="#F4FF27"/>
</svg>
