<svg xmlns="http://www.w3.org/2000/svg" fill="none" viewBox="0 0 116 30">
  <path d="M40.497 23.629c-1.025 0-1.929-.192-2.712-.577a4.366 4.366 0 01-1.815-1.665c-.427-.74-.662-1.63-.705-2.67a13.068 13.068 0 01-.021-.833c0-.356.007-.648.021-.875.043-1.04.278-1.922.705-2.649a4.324 4.324 0 011.815-1.686c.783-.385 1.687-.577 2.712-.577.911 0 1.687.128 2.328.384.64.257 1.167.577 1.58.961.413.385.72.79.919 1.217.213.413.327.79.341 1.132a.431.431 0 01-.15.385.54.54 0 01-.362.128h-1.88a.516.516 0 01-.341-.107 1.243 1.243 0 01-.214-.32c-.213-.57-.498-.968-.854-1.196-.342-.242-.783-.363-1.324-.363-.712 0-1.281.228-1.708.683-.413.442-.634 1.146-.662 2.114-.029.541-.029 1.04 0 1.495.028.983.249 1.695.662 2.136.427.441.996.662 1.708.662.555 0 1.004-.114 1.346-.342.341-.242.619-.648.832-1.217.071-.143.143-.25.214-.32a.517.517 0 01.342-.107h1.879c.142 0 .263.05.363.15.114.085.164.206.15.362a2.89 2.89 0 01-.214.876 3.59 3.59 0 01-.577.982 4.706 4.706 0 01-.982.918 5.242 5.242 0 01-1.452.662c-.556.171-1.203.257-1.944.257zm11.667 0c-1.14 0-2.1-.2-2.883-.598a4.227 4.227 0 01-1.773-1.687c-.399-.726-.626-1.573-.683-2.542a16.526 16.526 0 01-.022-.94c0-.37.008-.682.022-.939.057-.982.292-1.83.704-2.541a4.366 4.366 0 011.794-1.687c.783-.399 1.73-.598 2.84-.598 1.111 0 2.05.2 2.82.598.783.399 1.38.96 1.793 1.687.427.712.67 1.559.726 2.541.015.257.022.57.022.94s-.007.683-.022.94c-.056.968-.291 1.815-.704 2.54-.399.727-.99 1.29-1.773 1.688-.769.399-1.722.598-2.861.598zm0-2.114c.754 0 1.338-.235 1.75-.705.414-.484.641-1.189.684-2.114.014-.214.021-.492.021-.833 0-.342-.007-.62-.02-.833-.044-.911-.271-1.609-.684-2.093-.413-.484-.997-.726-1.751-.726-.755 0-1.339.242-1.752.726-.412.484-.64 1.182-.683 2.093-.014.213-.021.491-.021.833 0 .341.007.62.021.833.043.925.27 1.63.683 2.114.413.47.997.705 1.752.705zm7.62 1.9a.494.494 0 01-.364-.15.49.49 0 01-.15-.362V8.765c0-.142.05-.263.15-.363.1-.1.22-.15.363-.15h1.773c.142 0 .263.05.363.15.1.1.15.221.15.363v14.138c0 .142-.05.263-.15.363-.1.1-.221.15-.363.15h-1.773zm5.01 0a.494.494 0 01-.363-.15.49.49 0 01-.15-.362V8.765c0-.142.05-.263.15-.363.1-.1.22-.15.363-.15h1.773c.142 0 .263.05.363.15.1.1.15.221.15.363v14.138c0 .142-.05.263-.15.363-.1.1-.221.15-.363.15h-1.773zm9.26.214c-1.58 0-2.832-.456-3.758-1.367-.925-.911-1.423-2.207-1.495-3.887a5.535 5.535 0 01-.021-.534c0-.227.007-.405.021-.533.057-1.068.3-1.994.727-2.777a4.492 4.492 0 011.815-1.793c.769-.428 1.672-.641 2.712-.641 1.153 0 2.121.242 2.904.726a4.453 4.453 0 011.773 1.986c.398.84.598 1.815.598 2.926v.448c0 .143-.05.264-.15.363a.52.52 0 01-.384.15h-7.09v.17c.014.499.106.962.277 1.389.185.413.449.747.79 1.003.356.257.776.385 1.26.385.4 0 .734-.057 1.004-.171a2.738 2.738 0 001.025-.812c.128-.17.228-.27.3-.299a.83.83 0 01.362-.064h1.837c.142 0 .256.043.341.128a.35.35 0 01.129.32c-.015.229-.136.506-.363.834-.214.327-.527.647-.94.96-.413.314-.933.577-1.559.79-.612.2-1.317.3-2.114.3zm-2.348-6.727h4.72v-.064c0-.556-.093-1.04-.278-1.452a2.293 2.293 0 00-.812-.983c-.356-.242-.783-.363-1.281-.363-.499 0-.926.121-1.282.363a2.3 2.3 0 00-.811.983c-.17.413-.256.896-.256 1.452v.064zm14.055 6.727c-1.025 0-1.93-.192-2.712-.577a4.365 4.365 0 01-1.816-1.665c-.427-.74-.662-1.63-.704-2.67a12.982 12.982 0 01-.022-.833c0-.356.007-.648.022-.875.042-1.04.277-1.922.704-2.649a4.323 4.323 0 011.816-1.686c.783-.385 1.687-.577 2.712-.577.91 0 1.687.128 2.328.384.64.257 1.167.577 1.58.961.413.385.719.79.918 1.217.214.413.328.79.342 1.132a.43.43 0 01-.15.385.539.539 0 01-.363.128h-1.88a.517.517 0 01-.34-.107 1.246 1.246 0 01-.214-.32c-.214-.57-.499-.968-.855-1.196-.341-.242-.783-.363-1.324-.363-.711 0-1.28.228-1.708.683-.413.442-.633 1.146-.662 2.114-.029.541-.029 1.04 0 1.495.028.983.25 1.695.662 2.136.427.441.997.662 1.708.662.556 0 1.004-.114 1.346-.342.341-.242.62-.648.833-1.217.07-.143.142-.25.213-.32a.517.517 0 01.342-.107h1.88a.49.49 0 01.362.15c.114.085.164.206.15.362a2.886 2.886 0 01-.214.876 3.61 3.61 0 01-.576.982 4.707 4.707 0 01-.983.918c-.398.271-.883.492-1.452.662-.555.171-1.203.257-1.943.257zm11.773-.214c-.855 0-1.574-.15-2.157-.448a2.864 2.864 0 01-1.303-1.324c-.285-.598-.427-1.338-.427-2.221v-4.848H91.96a.494.494 0 01-.363-.15.49.49 0 01-.15-.362v-1.239c0-.142.05-.263.15-.363.1-.1.22-.15.363-.15h1.687V8.765c0-.142.043-.263.128-.363.1-.1.228-.15.385-.15h1.73a.49.49 0 01.362.15c.1.1.15.221.15.363v3.545h2.67a.49.49 0 01.362.15c.1.1.15.22.15.363v1.239c0 .142-.05.263-.15.363-.1.1-.22.15-.363.15h-2.67v4.633c0 .584.1 1.04.3 1.367.213.327.576.491 1.089.491h1.473c.143 0 .264.05.363.15.1.1.15.22.15.363v1.324c0 .142-.05.263-.15.363-.1.1-.22.15-.363.15h-1.73zm6.72.214c-.74 0-1.409-.143-2.007-.427-.598-.3-1.075-.69-1.431-1.175a2.884 2.884 0 01-.512-1.666c0-.996.398-1.786 1.196-2.37.811-.598 1.879-.997 3.203-1.196l2.926-.427v-.448c0-.598-.15-1.061-.449-1.389-.299-.327-.811-.49-1.537-.49-.513 0-.933.106-1.26.32-.314.199-.549.47-.705.811a.545.545 0 01-.491.278H101.5c-.157 0-.278-.043-.363-.128a.512.512 0 01-.107-.342c.014-.228.107-.506.277-.833.171-.328.442-.64.812-.94.37-.313.847-.576 1.431-.79.583-.213 1.288-.32 2.114-.32.897 0 1.651.114 2.264.342.626.213 1.124.505 1.494.875.371.37.641.804.812 1.303.171.498.256 1.025.256 1.58v6.706c0 .142-.05.263-.149.363-.1.1-.221.15-.363.15h-1.73a.518.518 0 01-.384-.15.536.536 0 01-.129-.363v-.833c-.185.27-.434.527-.747.769-.313.227-.698.42-1.153.576-.442.143-.968.214-1.581.214zm.727-2.029a2.81 2.81 0 001.345-.32c.413-.214.733-.541.961-.983.242-.455.363-1.025.363-1.708v-.449l-2.136.342c-.84.128-1.466.335-1.879.62-.413.284-.619.633-.619 1.046 0 .313.092.584.277.811.2.214.449.378.748.492.299.1.612.149.94.149z" fill="#fff"/>
  <path d="M29.58 21.457a.22.22 0 00-.281-.132l-1.674.61V7.212c0-1.029-.832-1.86-1.86-1.86H11.537c-1.028 0-1.86.831-1.86 1.86v14.723L8 21.325a.235.235 0 00-.074-.013.22.22 0 00-.219.218v1.631c0 .09.058.172.145.205l10.497 3.82a.868.868 0 00.6 0l10.5-3.817a.22.22 0 00.144-.205v-1.63a.238.238 0 00-.013-.077zm-10.929 3.742l-7.003-2.547V7.321h14.007v15.331L18.65 25.2z" fill="#F4FF27"/>
  <path d="M19.347 11.218v1.183c.239.033.463.085.674.155.404.135.748.322 1.033.562.285.232.505.505.663.82.157.314.24.655.247 1.022a.184.184 0 01-.068.168.229.229 0 01-.168.067H20.66a.34.34 0 01-.202-.056.387.387 0 01-.113-.213c-.12-.494-.325-.831-.617-1.01-.292-.18-.655-.27-1.09-.27-.501 0-.902.142-1.201.426-.3.277-.46.738-.483 1.382a26.375 26.375 0 000 1.887c.022.643.183 1.108.483 1.392.3.277.7.416 1.201.416.435 0 .798-.09 1.09-.27.292-.187.498-.524.617-1.01.023-.105.06-.177.113-.214a.34.34 0 01.202-.056h1.067c.067 0 .123.022.168.067a.184.184 0 01.068.169c-.008.367-.09.707-.247 1.022a2.603 2.603 0 01-.663.83 3.235 3.235 0 01-1.033.551 3.84 3.84 0 01-.674.156v.974h-1.392v-.972a3.486 3.486 0 01-1.079-.315 2.603 2.603 0 01-1.1-1.044c-.255-.457-.397-1.004-.427-1.64a40.586 40.586 0 010-2c.03-.628.172-1.171.426-1.628a2.585 2.585 0 011.112-1.044 3.4 3.4 0 011.068-.324v-1.183h1.392z" fill="#F4FF27"/>
</svg>
